<?xml version="1.0" standalone="no"?>
<!DOCTYPE svg PUBLIC "-//W3C//DTD SVG 20010904//EN"
 "http://www.w3.org/TR/2001/REC-SVG-20010904/DTD/svg10.dtd">
<svg version="1.0" xmlns="http://www.w3.org/2000/svg"
 width="365.000000pt" height="365.000000pt" viewBox="0 0 365.000000 365.000000"
 preserveAspectRatio="xMidYMid meet">
<metadata>
Created by potrace 1.14, written by Peter Selinger 2001-2017
</metadata>
<g transform="translate(0.000000,365.000000) scale(0.100000,-0.100000)"
fill="#000000" stroke="none">
<path d="M2219 2365 c0 -704 -2 -1291 -5 -1305 -22 -133 -55 -209 -116 -270
-69 -69 -146 -98 -263 -98 -169 0 -280 69 -346 214 -24 54 -33 90 -44 179 -1
11 -3 23 -4 28 0 4 -196 7 -435 7 l-433 0 3 -57 c13 -259 60 -422 169 -587 86
-131 208 -241 347 -315 67 -36 217 -94 271 -105 12 -3 54 -12 92 -20 192 -43
483 -40 690 5 356 78 625 267 792 554 54 93 104 231 118 325 3 19 8 47 12 60
8 32 12 2660 4 2661 -3 1 -196 2 -428 3 l-423 1 -1 -1280z"/>
</g>
</svg>
