<?xml version="1.0" encoding="utf-8"?>
<!-- Generator: Adobe Illustrator 16.0.0, SVG Export Plug-In . SVG Version: 6.00 Build 0)  -->
<!DOCTYPE svg PUBLIC "-//W3C//DTD SVG 1.1//EN" "http://www.w3.org/Graphics/SVG/1.1/DTD/svg11.dtd">
<svg version="1.1" id="Layer_1" xmlns="http://www.w3.org/2000/svg" xmlns:xlink="http://www.w3.org/1999/xlink" x="0px" y="0px"
	 width="1287.334px" height="310px" viewBox="0 0 1287.334 310" enable-background="new 0 0 1287.334 310" xml:space="preserve">
<rect x="-382" y="-845.5" display="none" fill="#E9E5DD" width="2000" height="2000"/>
<g>
	<defs>
		<rect id="SVGID_1_" x="-357" y="-845.5" width="2000" height="2000"/>
	</defs>
	<clipPath id="SVGID_2_">
		<use xlink:href="#SVGID_1_"  overflow="visible"/>
	</clipPath>
	<path clip-path="url(#SVGID_2_)" fill="#25262B" d="M90.734,192.064c0.002,6.84-0.631,12.612-1.759,17.25
		c-0.843,3.481-1.956,6.315-3.228,8.563c-0.956,1.688-1.996,3.052-3.121,4.182c-1.694,1.688-3.572,2.896-5.973,3.787
		c-2.396,0.881-5.355,1.41-9.011,1.411c-4.34-0.003-7.679-0.74-10.296-1.939c-1.969-0.908-3.583-2.071-5.061-3.645
		c-2.198-2.35-4.131-5.754-5.534-10.671c-1.399-4.899-2.206-11.242-2.202-18.938v-29.34H2v29.34
		c0.003,12.057,1.231,22.85,3.857,32.428c1.969,7.178,4.739,13.679,8.399,19.394c2.743,4.284,5.989,8.118,9.707,11.41
		c5.573,4.946,12.19,8.634,19.536,11.012c7.353,2.386,15.423,3.498,24.143,3.499c10.33-0.001,19.762-1.564,28.146-4.955
		c6.279-2.537,11.938-6.12,16.753-10.673c7.244-6.832,12.489-15.745,15.833-26.154c3.355-10.428,4.904-22.397,4.909-35.96V1.391
		H90.734V192.064z"/>
	<path clip-path="url(#SVGID_2_)" fill="#25262B" d="M264.075,85.798c-5.737-6.871-13.377-11.963-22.263-15.175
		c-8.902-3.228-19.048-4.695-30.428-4.699c-10.118,0.003-19.255,1.164-27.418,3.688c-6.116,1.891-11.686,4.567-16.555,8.086
		c-7.319,5.26-12.936,12.453-16.483,20.926c-3.569,8.482-5.183,18.161-5.186,28.908v80.666c0.002,9.557,1.278,18.258,4.069,26.04
		c2.088,5.829,5.051,11.128,8.88,15.695c5.737,6.871,13.377,11.963,22.263,15.174c8.902,3.229,19.049,4.695,30.43,4.699
		c10.117-0.004,19.253-1.164,27.416-3.688c6.116-1.892,11.685-4.566,16.555-8.085c7.319-5.261,12.936-12.453,16.483-20.926
		c3.57-8.482,5.184-18.162,5.187-28.91v-80.666c-0.002-9.556-1.278-18.257-4.069-26.039
		C270.867,95.664,267.904,90.365,264.075,85.798 M188.291,127.532c-0.001-3.839,0.555-6.833,1.416-9.086
		c0.65-1.698,1.452-2.999,2.443-4.12c1.488-1.658,3.481-3.031,6.607-4.115c3.108-1.07,7.324-1.743,12.627-1.739
		c4.711-0.002,8.57,0.526,11.547,1.398c2.239,0.654,3.978,1.485,5.348,2.417c1.029,0.702,1.861,1.461,2.582,2.324
		c1.074,1.295,1.932,2.847,2.579,4.947c0.642,2.093,1.037,4.738,1.036,7.974v80.666c0.001,3.84-0.555,6.834-1.416,9.086
		c-0.651,1.697-1.452,2.998-2.443,4.119c-1.489,1.658-3.481,3.031-6.608,4.114c-3.107,1.07-7.323,1.744-12.625,1.739
		c-4.713,0.003-8.572-0.525-11.55-1.398c-2.238-0.653-3.978-1.484-5.347-2.416c-1.029-0.702-1.861-1.461-2.582-2.323
		c-1.074-1.294-1.931-2.846-2.578-4.946c-0.641-2.093-1.037-4.737-1.036-7.975V127.532z"/>
	<path clip-path="url(#SVGID_2_)" fill="#25262B" d="M407.817,85.799c-5.737-6.872-13.378-11.963-22.263-15.175
		c-8.902-3.229-19.049-4.696-30.429-4.7c-8.366,0.005-16.063,0.82-23.092,2.532V1.39h-42.55v206.809
		c0.002,9.557,1.279,18.258,4.069,26.04c2.089,5.829,5.052,11.128,8.881,15.695c5.737,6.871,13.377,11.963,22.262,15.174
		c8.903,3.229,19.05,4.695,30.43,4.699c10.118-0.003,19.253-1.164,27.417-3.688c6.115-1.892,11.685-4.567,16.555-8.085
		c7.319-5.261,12.936-12.453,16.483-20.926c3.569-8.482,5.184-18.163,5.187-28.91v-80.667c-0.002-9.556-1.279-18.256-4.069-26.039
		C414.608,95.665,411.646,90.366,407.817,85.799 M355.125,227.257c-4.712,0.002-8.571-0.525-11.549-1.398
		c-2.239-0.653-3.978-1.484-5.347-2.416c-1.03-0.702-1.861-1.461-2.583-2.323c-1.073-1.294-1.931-2.846-2.578-4.946
		c-0.641-2.093-1.036-4.737-1.035-7.975v-80.667c-0.002-3.838,0.554-6.833,1.415-9.086c0.651-1.697,1.452-2.999,2.443-4.119
		c1.489-1.659,3.482-3.031,6.608-4.115c3.107-1.071,7.323-1.744,12.626-1.739c4.711-0.003,8.57,0.525,11.547,1.398
		c2.239,0.653,3.978,1.485,5.348,2.416c1.029,0.702,1.861,1.462,2.583,2.324c1.074,1.295,1.932,2.847,2.579,4.948
		c0.641,2.093,1.036,4.737,1.035,7.973v80.667c0.002,3.84-0.554,6.834-1.415,9.086c-0.651,1.697-1.452,2.998-2.444,4.118
		c-1.488,1.659-3.481,3.032-6.607,4.115C364.644,226.588,360.427,227.261,355.125,227.257"/>
	<path clip-path="url(#SVGID_2_)" fill="#25262B" d="M564.509,140.739v-13.207c-0.002-9.556-1.279-18.256-4.069-26.039
		c-2.089-5.828-5.052-11.127-8.881-15.694c-5.737-6.872-13.378-11.963-22.263-15.175c-8.902-3.229-19.049-4.696-30.429-4.699
		c-10.011,0.002-19.002,0.973-27.029,3.071c-6.016,1.576-11.497,3.798-16.356,6.766c-3.641,2.224-6.923,4.871-9.755,7.922
		c-4.255,4.572-7.453,10.042-9.5,16.083c-2.056,6.048-3.001,12.643-3.001,19.699v4.033c-0.004,6.645,1.099,13.099,3.34,19.159
		c3.352,9.108,9.235,17.211,17.117,24.105c7.894,6.91,17.77,12.707,29.545,17.634c14.304,5.963,24.744,11.838,31.004,16.988
		c3.138,2.561,5.196,4.906,6.325,6.747c0.569,0.922,0.916,1.711,1.122,2.374c0.205,0.666,0.279,1.204,0.281,1.726v4.034
		c-0.009,2.153-0.405,3.492-0.938,4.506c-0.414,0.764-0.934,1.416-1.811,2.128c-1.297,1.052-3.515,2.195-6.926,3.024
		c-3.394,0.835-7.905,1.336-13.418,1.333c-4.712,0.002-8.571-0.525-11.549-1.398c-2.239-0.653-3.977-1.484-5.347-2.416
		c-1.029-0.702-1.861-1.461-2.583-2.323c-1.073-1.294-1.931-2.846-2.578-4.946c-0.641-2.093-1.036-4.737-1.035-7.975V194.99h-42.549
		v13.208c0.002,9.557,1.278,18.258,4.068,26.04c2.089,5.829,5.051,11.128,8.881,15.695c5.737,6.871,13.377,11.963,22.263,15.174
		c8.902,3.229,19.049,4.695,30.429,4.699c10.011-0.003,19.001-0.974,27.028-3.072c6.016-1.575,11.498-3.797,16.355-6.765
		c3.641-2.224,6.924-4.871,9.755-7.922c4.256-4.571,7.454-10.042,9.502-16.083c2.056-6.048,3.001-12.643,3.001-19.699v-4.034
		c0.003-6.646-1.1-13.099-3.341-19.159c-3.352-9.107-9.236-17.209-17.118-24.104c-7.894-6.91-17.77-12.707-29.543-17.635
		c-14.307-5.962-24.747-11.836-31.006-16.987c-3.137-2.559-5.195-4.905-6.323-6.747c-0.569-0.922-0.917-1.711-1.123-2.374
		c-0.205-0.666-0.278-1.205-0.28-1.727v-4.033c0.009-2.154,0.404-3.493,0.937-4.506c0.414-0.764,0.935-1.417,1.811-2.129
		c1.298-1.052,3.515-2.196,6.925-3.026c3.394-0.835,7.906-1.336,13.419-1.332c4.711-0.003,8.57,0.525,11.548,1.398
		c2.239,0.653,3.977,1.485,5.347,2.416c1.03,0.702,1.862,1.462,2.583,2.325c1.074,1.294,1.932,2.846,2.579,4.947
		c0.641,2.093,1.037,4.737,1.036,7.973v13.207H564.509z"/>
	<polygon clip-path="url(#SVGID_2_)" fill="#25262B" points="656.968,10.565 656.968,34.764 608.568,34.764 608.568,260.632 
		584.368,260.632 584.368,34.764 535.968,34.764 535.968,10.565 	"/>
	<path clip-path="url(#SVGID_2_)" fill="#25262B" d="M706.491,75.099h24.2v24.199h-24.2c-21.513,0-32.269,9.413-32.269,28.235
		v133.099h-24.198V127.533C650.024,92.578,668.845,75.099,706.491,75.099"/>
	<path clip-path="url(#SVGID_2_)" fill="#25262B" d="M855.396,260.632h-24.201v-6.291c-8.497,4.194-19.253,6.291-32.266,6.291
		c-37.646,0-56.467-17.476-56.467-52.433v-80.667c0-34.955,18.82-52.434,56.467-52.434c37.644,0,56.467,17.479,56.467,52.434
		V260.632z M798.929,236.431c21.51,0,32.266-9.409,32.266-28.231v-80.667c0-18.822-10.756-28.235-32.266-28.235
		c-21.514,0-32.269,9.413-32.269,28.235v80.667C766.66,227.021,777.415,236.431,798.929,236.431"/>
	<path clip-path="url(#SVGID_2_)" fill="#25262B" d="M942.67,75.099c37.644,0,56.468,17.479,56.468,52.434v4.031h-24.201v-4.031
		c0-18.822-10.757-28.235-32.267-28.235c-21.513,0-32.268,9.413-32.268,28.235v80.666c0,18.823,10.755,28.232,32.268,28.232
		c21.51,0,32.267-9.409,32.267-28.232v-4.033h24.201v4.033c0,34.957-18.824,52.434-56.468,52.434
		c-37.646,0-56.467-17.477-56.467-52.434v-80.666C886.203,92.578,905.023,75.099,942.67,75.099"/>
	<polygon clip-path="url(#SVGID_2_)" fill="#25262B" points="1071.892,155.765 1116.582,75.099 1143.041,75.099 1091.575,167.865 
		1143.041,260.632 1116.582,260.632 1071.892,179.966 1054.145,179.966 1054.145,260.632 1029.945,260.632 1029.945,10.564 
		1054.145,10.564 1054.145,155.765 	"/>
	<path clip-path="url(#SVGID_2_)" fill="#25262B" d="M1216.119,75.099h24.199v24.199h-24.199c-21.514,0-32.268,9.413-32.268,28.235
		v133.099h-24.2V127.533C1159.651,92.578,1178.472,75.099,1216.119,75.099"/>
	<polygon clip-path="url(#SVGID_2_)" fill="#25262B" points="535.968,34.752 1259.813,34.752 1259.813,283.422 535.968,283.422 
		535.968,307.609 1284,307.609 1284,10.565 535.968,10.565 	"/>
</g>
</svg>
